%TF.GenerationSoftware,KiCad,Pcbnew,9.0.6*%
%TF.CreationDate,2026-03-09T13:08:43+03:00*%
%TF.ProjectId,tube_switcher,74756265-5f73-4776-9974-636865722e6b,rev?*%
%TF.SameCoordinates,Original*%
%TF.FileFunction,Copper,L1,Top*%
%TF.FilePolarity,Positive*%
%FSLAX46Y46*%
G04 Gerber Fmt 4.6, Leading zero omitted, Abs format (unit mm)*
G04 Created by KiCad (PCBNEW 9.0.6) date 2026-03-09 13:08:43*
%MOMM*%
%LPD*%
G01*
G04 APERTURE LIST*
G04 Aperture macros list*
%AMRoundRect*
0 Rectangle with rounded corners*
0 $1 Rounding radius*
0 $2 $3 $4 $5 $6 $7 $8 $9 X,Y pos of 4 corners*
0 Add a 4 corners polygon primitive as box body*
4,1,4,$2,$3,$4,$5,$6,$7,$8,$9,$2,$3,0*
0 Add four circle primitives for the rounded corners*
1,1,$1+$1,$2,$3*
1,1,$1+$1,$4,$5*
1,1,$1+$1,$6,$7*
1,1,$1+$1,$8,$9*
0 Add four rect primitives between the rounded corners*
20,1,$1+$1,$2,$3,$4,$5,0*
20,1,$1+$1,$4,$5,$6,$7,0*
20,1,$1+$1,$6,$7,$8,$9,0*
20,1,$1+$1,$8,$9,$2,$3,0*%
G04 Aperture macros list end*
%TA.AperFunction,SMDPad,CuDef*%
%ADD10RoundRect,0.160000X0.197500X0.160000X-0.197500X0.160000X-0.197500X-0.160000X0.197500X-0.160000X0*%
%TD*%
%TA.AperFunction,SMDPad,CuDef*%
%ADD11RoundRect,0.150000X0.150000X-0.587500X0.150000X0.587500X-0.150000X0.587500X-0.150000X-0.587500X0*%
%TD*%
%TA.AperFunction,SMDPad,CuDef*%
%ADD12RoundRect,0.160000X-0.160000X0.197500X-0.160000X-0.197500X0.160000X-0.197500X0.160000X0.197500X0*%
%TD*%
%TA.AperFunction,SMDPad,CuDef*%
%ADD13RoundRect,0.150000X-0.587500X-0.150000X0.587500X-0.150000X0.587500X0.150000X-0.587500X0.150000X0*%
%TD*%
%TA.AperFunction,SMDPad,CuDef*%
%ADD14RoundRect,0.250000X0.450000X-0.350000X0.450000X0.350000X-0.450000X0.350000X-0.450000X-0.350000X0*%
%TD*%
%TA.AperFunction,SMDPad,CuDef*%
%ADD15RoundRect,0.250000X0.350000X0.450000X-0.350000X0.450000X-0.350000X-0.450000X0.350000X-0.450000X0*%
%TD*%
%TA.AperFunction,SMDPad,CuDef*%
%ADD16RoundRect,0.250000X-0.625000X0.400000X-0.625000X-0.400000X0.625000X-0.400000X0.625000X0.400000X0*%
%TD*%
%TA.AperFunction,ComponentPad*%
%ADD17O,2.000000X1.700000*%
%TD*%
%TA.AperFunction,ComponentPad*%
%ADD18RoundRect,0.250000X-0.750000X0.600000X-0.750000X-0.600000X0.750000X-0.600000X0.750000X0.600000X0*%
%TD*%
%TA.AperFunction,SMDPad,CuDef*%
%ADD19RoundRect,0.250000X-0.650000X1.000000X-0.650000X-1.000000X0.650000X-1.000000X0.650000X1.000000X0*%
%TD*%
%TA.AperFunction,ComponentPad*%
%ADD20O,1.700000X1.950000*%
%TD*%
%TA.AperFunction,ComponentPad*%
%ADD21RoundRect,0.250000X-0.600000X-0.725000X0.600000X-0.725000X0.600000X0.725000X-0.600000X0.725000X0*%
%TD*%
%TA.AperFunction,ComponentPad*%
%ADD22RoundRect,0.250000X-0.725000X0.600000X-0.725000X-0.600000X0.725000X-0.600000X0.725000X0.600000X0*%
%TD*%
%TA.AperFunction,ComponentPad*%
%ADD23O,1.950000X1.700000*%
%TD*%
%TA.AperFunction,ComponentPad*%
%ADD24R,1.500000X1.500000*%
%TD*%
%TA.AperFunction,ComponentPad*%
%ADD25C,1.500000*%
%TD*%
%TA.AperFunction,ViaPad*%
%ADD26C,1.000000*%
%TD*%
%TA.AperFunction,Conductor*%
%ADD27C,0.400000*%
%TD*%
%TA.AperFunction,Conductor*%
%ADD28C,0.600000*%
%TD*%
G04 APERTURE END LIST*
D10*
%TO.P,R50,2*%
%TO.N,GND1*%
X116205000Y-62891666D03*
%TO.P,R50,1*%
%TO.N,Net-(Q21-B)*%
X117400000Y-62891666D03*
%TD*%
D11*
%TO.P,Q1,3,C*%
%TO.N,Net-(Q1-C)*%
X87247500Y-78000000D03*
%TO.P,Q1,2,E*%
%TO.N,+48V*%
X88197500Y-79875000D03*
%TO.P,Q1,1,B*%
%TO.N,Net-(Q1-B)*%
X86297500Y-79875000D03*
%TD*%
%TO.P,Q2,3,C*%
%TO.N,Net-(Q2-C)*%
X87247500Y-71333333D03*
%TO.P,Q2,2,E*%
%TO.N,+48V*%
X88197500Y-73208333D03*
%TO.P,Q2,1,B*%
%TO.N,Net-(Q2-B)*%
X86297500Y-73208333D03*
%TD*%
%TO.P,Q4,1,B*%
%TO.N,Net-(Q4-B)*%
X86297500Y-59875000D03*
%TO.P,Q4,2,E*%
%TO.N,+48V*%
X88197500Y-59875000D03*
%TO.P,Q4,3,C*%
%TO.N,Net-(Q4-C)*%
X87247500Y-58000000D03*
%TD*%
%TO.P,Q3,3,C*%
%TO.N,Net-(Q3-C)*%
X87247500Y-64666667D03*
%TO.P,Q3,2,E*%
%TO.N,+48V*%
X88197500Y-66541667D03*
%TO.P,Q3,1,B*%
%TO.N,Net-(Q3-B)*%
X86297500Y-66541667D03*
%TD*%
D12*
%TO.P,R28,1*%
%TO.N,/cathodes7*%
X104837500Y-74344166D03*
%TO.P,R28,2*%
%TO.N,Net-(Q16-B)*%
X104837500Y-75539166D03*
%TD*%
%TO.P,R29,1*%
%TO.N,/cathodes8*%
X104837500Y-70344166D03*
%TO.P,R29,2*%
%TO.N,Net-(Q17-B)*%
X104837500Y-71539166D03*
%TD*%
%TO.P,R30,1*%
%TO.N,/cathodes9*%
X104837500Y-66344166D03*
%TO.P,R30,2*%
%TO.N,Net-(Q18-B)*%
X104837500Y-67539166D03*
%TD*%
%TO.P,R31,2*%
%TO.N,Net-(Q19-B)*%
X104837500Y-63539166D03*
%TO.P,R31,1*%
%TO.N,/cathodes10*%
X104837500Y-62344166D03*
%TD*%
%TO.P,R27,1*%
%TO.N,/cathodes6*%
X104837500Y-78344166D03*
%TO.P,R27,2*%
%TO.N,Net-(Q15-B)*%
X104837500Y-79539166D03*
%TD*%
%TO.P,R46,2*%
%TO.N,Net-(Q21-B)*%
X122000000Y-61189166D03*
%TO.P,R46,1*%
%TO.N,Net-(J3-Pin_2)*%
X122000000Y-59994166D03*
%TD*%
%TO.P,R47,2*%
%TO.N,Net-(Q22-B)*%
X122000000Y-64589166D03*
%TO.P,R47,1*%
%TO.N,Net-(J3-Pin_3)*%
X122000000Y-63394166D03*
%TD*%
%TO.P,R48,2*%
%TO.N,Net-(Q23-B)*%
X122000000Y-67989166D03*
%TO.P,R48,1*%
%TO.N,Net-(J3-Pin_4)*%
X122000000Y-66794166D03*
%TD*%
%TO.P,R49,2*%
%TO.N,Net-(Q24-B)*%
X122000000Y-71389166D03*
%TO.P,R49,1*%
%TO.N,Net-(J3-Pin_5)*%
X122000000Y-70194166D03*
%TD*%
D13*
%TO.P,Q8,1,B*%
%TO.N,Net-(Q8-B)*%
X78960000Y-60074999D03*
%TO.P,Q8,2,E*%
%TO.N,GND*%
X78960000Y-61974999D03*
%TO.P,Q8,3,C*%
%TO.N,Net-(Q8-C)*%
X80835000Y-61024999D03*
%TD*%
D12*
%TO.P,R17,1*%
%TO.N,Net-(Q5-B)*%
X77397500Y-80427499D03*
%TO.P,R17,2*%
%TO.N,GND*%
X77397500Y-81622499D03*
%TD*%
D13*
%TO.P,Q7,1,B*%
%TO.N,Net-(Q7-B)*%
X78960000Y-66741666D03*
%TO.P,Q7,2,E*%
%TO.N,GND*%
X78960000Y-68641666D03*
%TO.P,Q7,3,C*%
%TO.N,Net-(Q7-C)*%
X80835000Y-67691666D03*
%TD*%
D12*
%TO.P,R20,2*%
%TO.N,GND*%
X77397500Y-61622499D03*
%TO.P,R20,1*%
%TO.N,Net-(Q8-B)*%
X77397500Y-60427499D03*
%TD*%
D14*
%TO.P,R12,1*%
%TO.N,Net-(Q4-B)*%
X83400000Y-62024999D03*
%TO.P,R12,2*%
%TO.N,Net-(Q8-C)*%
X83400000Y-60024999D03*
%TD*%
%TO.P,R11,1*%
%TO.N,Net-(Q3-B)*%
X83400000Y-68691666D03*
%TO.P,R11,2*%
%TO.N,Net-(Q7-C)*%
X83400000Y-66691666D03*
%TD*%
D15*
%TO.P,R4,1*%
%TO.N,+48V*%
X88197500Y-61908333D03*
%TO.P,R4,2*%
%TO.N,Net-(Q4-B)*%
X86197500Y-61908333D03*
%TD*%
D13*
%TO.P,Q6,1,B*%
%TO.N,Net-(Q6-B)*%
X78960000Y-73408332D03*
%TO.P,Q6,2,E*%
%TO.N,GND*%
X78960000Y-75308332D03*
%TO.P,Q6,3,C*%
%TO.N,Net-(Q6-C)*%
X80835000Y-74358332D03*
%TD*%
D12*
%TO.P,R19,2*%
%TO.N,GND*%
X77397500Y-68289166D03*
%TO.P,R19,1*%
%TO.N,Net-(Q7-B)*%
X77397500Y-67094166D03*
%TD*%
D15*
%TO.P,R3,1*%
%TO.N,+48V*%
X88197500Y-68575000D03*
%TO.P,R3,2*%
%TO.N,Net-(Q3-B)*%
X86197500Y-68575000D03*
%TD*%
D14*
%TO.P,R10,1*%
%TO.N,Net-(Q2-B)*%
X83400000Y-75358332D03*
%TO.P,R10,2*%
%TO.N,Net-(Q6-C)*%
X83400000Y-73358332D03*
%TD*%
D10*
%TO.P,R8,1*%
%TO.N,/anodes3*%
X80047500Y-58224999D03*
%TO.P,R8,2*%
%TO.N,Net-(Q8-B)*%
X78852500Y-58224999D03*
%TD*%
%TO.P,R5,2*%
%TO.N,Net-(Q5-B)*%
X78852500Y-78224999D03*
%TO.P,R5,1*%
%TO.N,/anodes0*%
X80047500Y-78224999D03*
%TD*%
D15*
%TO.P,R2,1*%
%TO.N,+48V*%
X88197500Y-75241666D03*
%TO.P,R2,2*%
%TO.N,Net-(Q2-B)*%
X86197500Y-75241666D03*
%TD*%
D16*
%TO.P,R14,1*%
%TO.N,Net-(Q2-C)*%
X91500000Y-72191666D03*
%TO.P,R14,2*%
%TO.N,/t_anodes1*%
X91500000Y-75291666D03*
%TD*%
D12*
%TO.P,R18,2*%
%TO.N,GND*%
X77397500Y-74955832D03*
%TO.P,R18,1*%
%TO.N,Net-(Q6-B)*%
X77397500Y-73760832D03*
%TD*%
D10*
%TO.P,R7,1*%
%TO.N,/anodes2*%
X80047500Y-64891666D03*
%TO.P,R7,2*%
%TO.N,Net-(Q7-B)*%
X78852500Y-64891666D03*
%TD*%
D16*
%TO.P,R16,1*%
%TO.N,Net-(Q4-C)*%
X91500000Y-58858333D03*
%TO.P,R16,2*%
%TO.N,/t_anodes3*%
X91500000Y-61958333D03*
%TD*%
%TO.P,R15,1*%
%TO.N,Net-(Q3-C)*%
X91500000Y-65525000D03*
%TO.P,R15,2*%
%TO.N,/t_anodes2*%
X91500000Y-68625000D03*
%TD*%
D10*
%TO.P,R6,1*%
%TO.N,/anodes1*%
X80047500Y-71558332D03*
%TO.P,R6,2*%
%TO.N,Net-(Q6-B)*%
X78852500Y-71558332D03*
%TD*%
D17*
%TO.P,J5,2,Pin_2*%
%TO.N,GND*%
X74000000Y-69991666D03*
D18*
%TO.P,J5,1,Pin_1*%
%TO.N,+48V*%
X74000000Y-67491666D03*
%TD*%
D12*
%TO.P,R26,1*%
%TO.N,/cathodes5*%
X95075000Y-58344166D03*
%TO.P,R26,2*%
%TO.N,Net-(Q14-B)*%
X95075000Y-59539166D03*
%TD*%
%TO.P,R32,1*%
%TO.N,/cathodes11*%
X104837500Y-58344166D03*
%TO.P,R32,2*%
%TO.N,Net-(Q20-B)*%
X104837500Y-59539166D03*
%TD*%
%TO.P,R21,1*%
%TO.N,/cathodes0*%
X95075000Y-78344166D03*
%TO.P,R21,2*%
%TO.N,Net-(Q9-B)*%
X95075000Y-79539166D03*
%TD*%
D13*
%TO.P,Q9,1,B*%
%TO.N,Net-(Q9-B)*%
X99800000Y-79191666D03*
%TO.P,Q9,2,E*%
%TO.N,GND*%
X99800000Y-81091666D03*
%TO.P,Q9,3,C*%
%TO.N,/t_cathodes0*%
X101675000Y-80141666D03*
%TD*%
D12*
%TO.P,R25,1*%
%TO.N,/cathodes4*%
X95075000Y-62344166D03*
%TO.P,R25,2*%
%TO.N,Net-(Q13-B)*%
X95075000Y-63539166D03*
%TD*%
%TO.P,R38,2*%
%TO.N,GND*%
X97175000Y-60739166D03*
%TO.P,R38,1*%
%TO.N,Net-(Q14-B)*%
X97175000Y-59544166D03*
%TD*%
D13*
%TO.P,Q12,1,B*%
%TO.N,Net-(Q12-B)*%
X99800000Y-67191666D03*
%TO.P,Q12,2,E*%
%TO.N,GND*%
X99800000Y-69091666D03*
%TO.P,Q12,3,C*%
%TO.N,/t_cathodes3*%
X101675000Y-68141666D03*
%TD*%
D12*
%TO.P,R35,1*%
%TO.N,Net-(Q11-B)*%
X97175000Y-71544166D03*
%TO.P,R35,2*%
%TO.N,GND*%
X97175000Y-72739166D03*
%TD*%
%TO.P,R39,1*%
%TO.N,Net-(Q15-B)*%
X106775000Y-79544166D03*
%TO.P,R39,2*%
%TO.N,GND*%
X106775000Y-80739166D03*
%TD*%
D13*
%TO.P,Q17,3,C*%
%TO.N,/t_cathodes8*%
X111075000Y-72141666D03*
%TO.P,Q17,2,E*%
%TO.N,GND*%
X109200000Y-73091666D03*
%TO.P,Q17,1,B*%
%TO.N,Net-(Q17-B)*%
X109200000Y-71191666D03*
%TD*%
%TO.P,Q10,1,B*%
%TO.N,Net-(Q10-B)*%
X99800000Y-75191666D03*
%TO.P,Q10,2,E*%
%TO.N,GND*%
X99800000Y-77091666D03*
%TO.P,Q10,3,C*%
%TO.N,/t_cathodes1*%
X101675000Y-76141666D03*
%TD*%
D12*
%TO.P,R34,1*%
%TO.N,Net-(Q10-B)*%
X97175000Y-75544166D03*
%TO.P,R34,2*%
%TO.N,GND*%
X97175000Y-76739166D03*
%TD*%
D13*
%TO.P,Q15,3,C*%
%TO.N,/t_cathodes6*%
X111075000Y-80141666D03*
%TO.P,Q15,2,E*%
%TO.N,GND*%
X109200000Y-81091666D03*
%TO.P,Q15,1,B*%
%TO.N,Net-(Q15-B)*%
X109200000Y-79191666D03*
%TD*%
%TO.P,Q19,3,C*%
%TO.N,/t_cathodes10*%
X111075000Y-64141666D03*
%TO.P,Q19,2,E*%
%TO.N,GND*%
X109200000Y-65091666D03*
%TO.P,Q19,1,B*%
%TO.N,Net-(Q19-B)*%
X109200000Y-63191666D03*
%TD*%
%TO.P,Q20,3,C*%
%TO.N,/t_cathodes11*%
X111075000Y-60141666D03*
%TO.P,Q20,2,E*%
%TO.N,GND*%
X109200000Y-61091666D03*
%TO.P,Q20,1,B*%
%TO.N,Net-(Q20-B)*%
X109200000Y-59191666D03*
%TD*%
%TO.P,Q18,3,C*%
%TO.N,/t_cathodes9*%
X111075000Y-68141666D03*
%TO.P,Q18,2,E*%
%TO.N,GND*%
X109200000Y-69091666D03*
%TO.P,Q18,1,B*%
%TO.N,Net-(Q18-B)*%
X109200000Y-67191666D03*
%TD*%
D12*
%TO.P,R41,1*%
%TO.N,Net-(Q17-B)*%
X106775000Y-71544166D03*
%TO.P,R41,2*%
%TO.N,GND*%
X106775000Y-72739166D03*
%TD*%
D13*
%TO.P,Q16,3,C*%
%TO.N,/t_cathodes7*%
X111075000Y-76141666D03*
%TO.P,Q16,2,E*%
%TO.N,GND*%
X109200000Y-77091666D03*
%TO.P,Q16,1,B*%
%TO.N,Net-(Q16-B)*%
X109200000Y-75191666D03*
%TD*%
D12*
%TO.P,R42,1*%
%TO.N,Net-(Q18-B)*%
X106775000Y-67544166D03*
%TO.P,R42,2*%
%TO.N,GND*%
X106775000Y-68739166D03*
%TD*%
D13*
%TO.P,Q11,1,B*%
%TO.N,Net-(Q11-B)*%
X99800000Y-71191666D03*
%TO.P,Q11,2,E*%
%TO.N,GND*%
X99800000Y-73091666D03*
%TO.P,Q11,3,C*%
%TO.N,/t_cathodes2*%
X101675000Y-72141666D03*
%TD*%
D12*
%TO.P,R36,1*%
%TO.N,Net-(Q12-B)*%
X97175000Y-67544166D03*
%TO.P,R36,2*%
%TO.N,GND*%
X97175000Y-68739166D03*
%TD*%
D13*
%TO.P,Q14,1,B*%
%TO.N,Net-(Q14-B)*%
X99800000Y-59191666D03*
%TO.P,Q14,2,E*%
%TO.N,GND*%
X99800000Y-61091666D03*
%TO.P,Q14,3,C*%
%TO.N,/t_cathodes5*%
X101675000Y-60141666D03*
%TD*%
D12*
%TO.P,R23,1*%
%TO.N,/cathodes2*%
X95075000Y-70344166D03*
%TO.P,R23,2*%
%TO.N,Net-(Q11-B)*%
X95075000Y-71539166D03*
%TD*%
%TO.P,R22,1*%
%TO.N,/cathodes1*%
X95075000Y-74344166D03*
%TO.P,R22,2*%
%TO.N,Net-(Q10-B)*%
X95075000Y-75539166D03*
%TD*%
%TO.P,R33,1*%
%TO.N,Net-(Q9-B)*%
X97175000Y-79544166D03*
%TO.P,R33,2*%
%TO.N,GND*%
X97175000Y-80739166D03*
%TD*%
%TO.P,R43,2*%
%TO.N,GND*%
X106775000Y-64739166D03*
%TO.P,R43,1*%
%TO.N,Net-(Q19-B)*%
X106775000Y-63544166D03*
%TD*%
%TO.P,R24,1*%
%TO.N,/cathodes3*%
X95075000Y-66344166D03*
%TO.P,R24,2*%
%TO.N,Net-(Q12-B)*%
X95075000Y-67539166D03*
%TD*%
D13*
%TO.P,Q13,1,B*%
%TO.N,Net-(Q13-B)*%
X99800000Y-63191666D03*
%TO.P,Q13,2,E*%
%TO.N,GND*%
X99800000Y-65091666D03*
%TO.P,Q13,3,C*%
%TO.N,/t_cathodes4*%
X101675000Y-64141666D03*
%TD*%
D12*
%TO.P,R40,1*%
%TO.N,Net-(Q16-B)*%
X106775000Y-75544166D03*
%TO.P,R40,2*%
%TO.N,GND*%
X106775000Y-76739166D03*
%TD*%
%TO.P,R37,2*%
%TO.N,GND*%
X97175000Y-64739166D03*
%TO.P,R37,1*%
%TO.N,Net-(Q13-B)*%
X97175000Y-63544166D03*
%TD*%
%TO.P,R44,2*%
%TO.N,GND*%
X106775000Y-60739166D03*
%TO.P,R44,1*%
%TO.N,Net-(Q20-B)*%
X106775000Y-59544166D03*
%TD*%
D14*
%TO.P,R9,2*%
%TO.N,Net-(Q5-C)*%
X83400000Y-80024999D03*
%TO.P,R9,1*%
%TO.N,Net-(Q1-B)*%
X83400000Y-82024999D03*
%TD*%
D13*
%TO.P,Q5,3,C*%
%TO.N,Net-(Q5-C)*%
X80835000Y-81024999D03*
%TO.P,Q5,2,E*%
%TO.N,GND*%
X78960000Y-81974999D03*
%TO.P,Q5,1,B*%
%TO.N,Net-(Q5-B)*%
X78960000Y-80074999D03*
%TD*%
D16*
%TO.P,R13,1*%
%TO.N,Net-(Q1-C)*%
X91500000Y-78858333D03*
%TO.P,R13,2*%
%TO.N,/t_anodes0*%
X91500000Y-81958333D03*
%TD*%
D15*
%TO.P,R1,2*%
%TO.N,Net-(Q1-B)*%
X86197500Y-81908333D03*
%TO.P,R1,1*%
%TO.N,+48V*%
X88197500Y-81908333D03*
%TD*%
D19*
%TO.P,D1,1,K*%
%TO.N,Net-(D1-K)*%
X121300000Y-83091666D03*
%TO.P,D1,2,A*%
%TO.N,Net-(D1-A)*%
X121300000Y-87091666D03*
%TD*%
D16*
%TO.P,R45,1*%
%TO.N,Net-(J4-Pin_4)*%
X122000000Y-77141666D03*
%TO.P,R45,2*%
%TO.N,Net-(D1-A)*%
X122000000Y-80241666D03*
%TD*%
D10*
%TO.P,R53,1*%
%TO.N,Net-(Q24-B)*%
X117400000Y-81891666D03*
%TO.P,R53,2*%
%TO.N,GND1*%
X116205000Y-81891666D03*
%TD*%
%TO.P,R52,1*%
%TO.N,Net-(Q23-B)*%
X117400000Y-75558333D03*
%TO.P,R52,2*%
%TO.N,GND1*%
X116205000Y-75558333D03*
%TD*%
D20*
%TO.P,J1,16,Pin_16*%
%TO.N,/cathodes11*%
X116500000Y-52900000D03*
%TO.P,J1,15,Pin_15*%
%TO.N,/cathodes10*%
X114000000Y-52900000D03*
%TO.P,J1,14,Pin_14*%
%TO.N,/cathodes9*%
X111500000Y-52900000D03*
%TO.P,J1,13,Pin_13*%
%TO.N,/cathodes8*%
X109000000Y-52900000D03*
%TO.P,J1,12,Pin_12*%
%TO.N,/cathodes7*%
X106500000Y-52900000D03*
%TO.P,J1,11,Pin_11*%
%TO.N,/cathodes6*%
X104000000Y-52900000D03*
%TO.P,J1,10,Pin_10*%
%TO.N,/cathodes5*%
X101500000Y-52900000D03*
%TO.P,J1,9,Pin_9*%
%TO.N,/cathodes4*%
X99000000Y-52900000D03*
%TO.P,J1,8,Pin_8*%
%TO.N,/cathodes3*%
X96500000Y-52900000D03*
%TO.P,J1,7,Pin_7*%
%TO.N,/cathodes2*%
X94000000Y-52900000D03*
%TO.P,J1,6,Pin_6*%
%TO.N,/cathodes1*%
X91500000Y-52900000D03*
%TO.P,J1,5,Pin_5*%
%TO.N,/cathodes0*%
X89000000Y-52900000D03*
%TO.P,J1,4,Pin_4*%
%TO.N,/anodes3*%
X86500000Y-52900000D03*
%TO.P,J1,3,Pin_3*%
%TO.N,/anodes2*%
X84000000Y-52900000D03*
%TO.P,J1,2,Pin_2*%
%TO.N,/anodes1*%
X81500000Y-52900000D03*
D21*
%TO.P,J1,1,Pin_1*%
%TO.N,/anodes0*%
X79000000Y-52900000D03*
%TD*%
D22*
%TO.P,J4,1,Pin_1*%
%TO.N,Net-(J4-Pin_1)*%
X127100000Y-74091666D03*
D23*
%TO.P,J4,2,Pin_2*%
%TO.N,Net-(J4-Pin_2)*%
X127100000Y-76591666D03*
%TO.P,J4,3,Pin_3*%
%TO.N,Net-(D1-K)*%
X127100000Y-79091666D03*
%TO.P,J4,4,Pin_4*%
%TO.N,Net-(J4-Pin_4)*%
X127100000Y-81591666D03*
%TD*%
D10*
%TO.P,R51,1*%
%TO.N,Net-(Q22-B)*%
X117400000Y-69224999D03*
%TO.P,R51,2*%
%TO.N,GND1*%
X116205000Y-69224999D03*
%TD*%
D21*
%TO.P,J2,1,Pin_1*%
%TO.N,/t_anodes0*%
X79000000Y-86000000D03*
D20*
%TO.P,J2,2,Pin_2*%
%TO.N,/t_anodes1*%
X81500000Y-86000000D03*
%TO.P,J2,3,Pin_3*%
%TO.N,/t_anodes2*%
X84000000Y-86000000D03*
%TO.P,J2,4,Pin_4*%
%TO.N,/t_anodes3*%
X86500000Y-86000000D03*
%TO.P,J2,5,Pin_5*%
%TO.N,/t_cathodes0*%
X89000000Y-86000000D03*
%TO.P,J2,6,Pin_6*%
%TO.N,/t_cathodes1*%
X91500000Y-86000000D03*
%TO.P,J2,7,Pin_7*%
%TO.N,/t_cathodes2*%
X94000000Y-86000000D03*
%TO.P,J2,8,Pin_8*%
%TO.N,/t_cathodes3*%
X96500000Y-86000000D03*
%TO.P,J2,9,Pin_9*%
%TO.N,/t_cathodes4*%
X99000000Y-86000000D03*
%TO.P,J2,10,Pin_10*%
%TO.N,/t_cathodes5*%
X101500000Y-86000000D03*
%TO.P,J2,11,Pin_11*%
%TO.N,/t_cathodes6*%
X104000000Y-86000000D03*
%TO.P,J2,12,Pin_12*%
%TO.N,/t_cathodes7*%
X106500000Y-86000000D03*
%TO.P,J2,13,Pin_13*%
%TO.N,/t_cathodes8*%
X109000000Y-86000000D03*
%TO.P,J2,14,Pin_14*%
%TO.N,/t_cathodes9*%
X111500000Y-86000000D03*
%TO.P,J2,15,Pin_15*%
%TO.N,/t_cathodes10*%
X114000000Y-86000000D03*
%TO.P,J2,16,Pin_16*%
%TO.N,/t_cathodes11*%
X116500000Y-86000000D03*
%TD*%
D22*
%TO.P,J3,1,Pin_1*%
%TO.N,GND1*%
X127100000Y-58091666D03*
D23*
%TO.P,J3,2,Pin_2*%
%TO.N,Net-(J3-Pin_2)*%
X127100000Y-60591666D03*
%TO.P,J3,3,Pin_3*%
%TO.N,Net-(J3-Pin_3)*%
X127100000Y-63091666D03*
%TO.P,J3,4,Pin_4*%
%TO.N,Net-(J3-Pin_4)*%
X127100000Y-65591666D03*
%TO.P,J3,5,Pin_5*%
%TO.N,Net-(J3-Pin_5)*%
X127100000Y-68091666D03*
%TD*%
D24*
%TO.P,Q23,1,B*%
%TO.N,Net-(Q23-B)*%
X119740000Y-72785000D03*
D25*
%TO.P,Q23,2,C*%
%TO.N,Net-(D1-K)*%
X117200000Y-72785000D03*
%TO.P,Q23,3,E*%
%TO.N,GND1*%
X114660000Y-72785000D03*
%TD*%
D24*
%TO.P,Q21,1,B*%
%TO.N,Net-(Q21-B)*%
X119740000Y-60118333D03*
D25*
%TO.P,Q21,2,C*%
%TO.N,Net-(J4-Pin_1)*%
X117200000Y-60118333D03*
%TO.P,Q21,3,E*%
%TO.N,GND1*%
X114660000Y-60118333D03*
%TD*%
D24*
%TO.P,Q22,1,B*%
%TO.N,Net-(Q22-B)*%
X119740000Y-66451666D03*
D25*
%TO.P,Q22,2,C*%
%TO.N,Net-(J4-Pin_2)*%
X117200000Y-66451666D03*
%TO.P,Q22,3,E*%
%TO.N,GND1*%
X114660000Y-66451666D03*
%TD*%
D24*
%TO.P,Q24,1,B*%
%TO.N,Net-(Q24-B)*%
X119740000Y-79118333D03*
D25*
%TO.P,Q24,2,C*%
%TO.N,Net-(D1-A)*%
X117200000Y-79118333D03*
%TO.P,Q24,3,E*%
%TO.N,GND1*%
X114660000Y-79118333D03*
%TD*%
D26*
%TO.N,Net-(D1-A)*%
X119000000Y-85591666D03*
%TO.N,Net-(J4-Pin_4)*%
X123900000Y-79191666D03*
%TO.N,/t_cathodes10*%
X111950000Y-70941666D03*
%TO.N,/t_cathodes11*%
X111000000Y-58391666D03*
%TO.N,/t_cathodes9*%
X110800000Y-69791666D03*
%TO.N,/cathodes9*%
X107200000Y-66091666D03*
%TO.N,/cathodes8*%
X106200000Y-70191666D03*
%TO.N,/cathodes7*%
X106200000Y-74191666D03*
%TO.N,/cathodes6*%
X106000000Y-78091666D03*
%TO.N,/cathodes10*%
X112800000Y-57691666D03*
%TO.N,/t_cathodes5*%
X101900000Y-58891666D03*
%TO.N,/t_cathodes4*%
X101700000Y-62491666D03*
%TO.N,/t_cathodes3*%
X101300000Y-66191666D03*
%TO.N,/t_cathodes2*%
X98800000Y-70191666D03*
%TO.N,/t_cathodes1*%
X98700000Y-74091666D03*
%TO.N,/cathodes4*%
X99000000Y-62091666D03*
%TO.N,/cathodes3*%
X98100000Y-66291666D03*
%TO.N,/cathodes2*%
X97400000Y-70191666D03*
%TO.N,/cathodes1*%
X96300000Y-74291666D03*
%TO.N,/cathodes0*%
X96300000Y-78191666D03*
%TO.N,/t_anodes3*%
X91500000Y-60391666D03*
%TO.N,/t_anodes2*%
X93300000Y-68591666D03*
%TO.N,+48V*%
X89600000Y-79091666D03*
%TO.N,/t_anodes1*%
X91500000Y-73791666D03*
%TO.N,+48V*%
X89700000Y-61891666D03*
%TO.N,/anodes0*%
X81900000Y-77991666D03*
%TO.N,/anodes1*%
X81500000Y-71491666D03*
%TO.N,/anodes2*%
X84000000Y-64891666D03*
%TO.N,/anodes3*%
X85600000Y-57591666D03*
%TO.N,+48V*%
X89700000Y-55691666D03*
X89700000Y-75191666D03*
X89700000Y-68591666D03*
%TO.N,/t_cathodes0*%
X97800000Y-78091666D03*
%TD*%
D27*
%TO.N,Net-(Q2-B)*%
X86197500Y-75241666D02*
X83516666Y-75241666D01*
X83516666Y-75241666D02*
X83400000Y-75358332D01*
X86297500Y-73208333D02*
X86297500Y-75141666D01*
X86297500Y-75141666D02*
X86197500Y-75241666D01*
%TO.N,+48V*%
X88197500Y-73208333D02*
X88197500Y-75241666D01*
X74000000Y-67491666D02*
X74000000Y-60600000D01*
X74000000Y-60600000D02*
X78908334Y-55691666D01*
X78908334Y-55691666D02*
X89700000Y-55691666D01*
%TO.N,Net-(D1-K)*%
X121300000Y-83091666D02*
X122600000Y-83091666D01*
X122600000Y-83091666D02*
X126600000Y-79091666D01*
X126600000Y-79091666D02*
X127100000Y-79091666D01*
%TO.N,Net-(D1-A)*%
X122000000Y-80241666D02*
X120950000Y-80241666D01*
X120950000Y-80241666D02*
X119000000Y-82191666D01*
X119000000Y-82191666D02*
X119000000Y-85591666D01*
X119000000Y-85591666D02*
X119800000Y-85591666D01*
X119800000Y-85591666D02*
X121300000Y-87091666D01*
D28*
%TO.N,GND*%
X76100000Y-74891666D02*
X76100000Y-71991666D01*
X74000000Y-69991666D02*
X74100000Y-69991666D01*
X74100000Y-69991666D02*
X76100000Y-71991666D01*
X74000000Y-69991666D02*
X74400000Y-69991666D01*
X74400000Y-69991666D02*
X76100000Y-68291666D01*
X76100000Y-69491666D02*
X76100000Y-68791666D01*
X74000000Y-69991666D02*
X74900000Y-69991666D01*
X74900000Y-69991666D02*
X76100000Y-68791666D01*
X76100000Y-69991666D02*
X76100000Y-69491666D01*
X74000000Y-69991666D02*
X75600000Y-69991666D01*
X75600000Y-69991666D02*
X76100000Y-69491666D01*
X76100000Y-71991666D02*
X76100000Y-71391666D01*
X74000000Y-69991666D02*
X74700000Y-69991666D01*
X74700000Y-69991666D02*
X76100000Y-71391666D01*
X76100000Y-71391666D02*
X76100000Y-70791666D01*
X74000000Y-69991666D02*
X75300000Y-69991666D01*
X75300000Y-69991666D02*
X76100000Y-70791666D01*
X74000000Y-69991666D02*
X76100000Y-69991666D01*
D27*
%TO.N,Net-(D1-A)*%
X121900000Y-80341666D02*
X122000000Y-80241666D01*
%TO.N,Net-(J4-Pin_4)*%
X122000000Y-77141666D02*
X122000000Y-77291666D01*
X122000000Y-77291666D02*
X123900000Y-79191666D01*
%TO.N,Net-(Q24-B)*%
X122000000Y-71389166D02*
X122000000Y-74191666D01*
X122000000Y-74191666D02*
X119740000Y-76451666D01*
X119740000Y-76451666D02*
X119740000Y-79118333D01*
%TO.N,Net-(J3-Pin_5)*%
X127100000Y-68091666D02*
X124102500Y-68091666D01*
X124102500Y-68091666D02*
X122000000Y-70194166D01*
%TO.N,Net-(Q23-B)*%
X122000000Y-67989166D02*
X119740000Y-70249166D01*
X119740000Y-70249166D02*
X119740000Y-72785000D01*
%TO.N,Net-(J3-Pin_4)*%
X127100000Y-65591666D02*
X123202500Y-65591666D01*
X123202500Y-65591666D02*
X122000000Y-66794166D01*
%TO.N,Net-(J3-Pin_3)*%
X122000000Y-63394166D02*
X126797500Y-63394166D01*
X126797500Y-63394166D02*
X127100000Y-63091666D01*
%TO.N,Net-(Q22-B)*%
X122000000Y-64589166D02*
X121602500Y-64589166D01*
X121602500Y-64589166D02*
X119740000Y-66451666D01*
%TO.N,Net-(J3-Pin_2)*%
X122000000Y-59994166D02*
X126502500Y-59994166D01*
X126502500Y-59994166D02*
X127100000Y-60591666D01*
%TO.N,Net-(Q21-B)*%
X122000000Y-61189166D02*
X120810833Y-61189166D01*
X120810833Y-61189166D02*
X119740000Y-60118333D01*
%TO.N,Net-(Q24-B)*%
X119740000Y-79118333D02*
X119740000Y-79551666D01*
X119740000Y-79551666D02*
X117400000Y-81891666D01*
%TO.N,Net-(Q21-B)*%
X119740000Y-60118333D02*
X119740000Y-60551666D01*
X119740000Y-60551666D02*
X117400000Y-62891666D01*
%TO.N,Net-(Q22-B)*%
X119740000Y-66451666D02*
X119740000Y-66884999D01*
X119740000Y-66884999D02*
X117400000Y-69224999D01*
%TO.N,Net-(Q23-B)*%
X119740000Y-72785000D02*
X119740000Y-73218333D01*
X119740000Y-73218333D02*
X117400000Y-75558333D01*
%TO.N,GND1*%
X114660000Y-60118333D02*
X114660000Y-61346666D01*
X114660000Y-61346666D02*
X116205000Y-62891666D01*
X114660000Y-66451666D02*
X114660000Y-67679999D01*
X114660000Y-67679999D02*
X116205000Y-69224999D01*
X114660000Y-72785000D02*
X114660000Y-74013333D01*
X114660000Y-74013333D02*
X116205000Y-75558333D01*
X114660000Y-79118333D02*
X114660000Y-80346666D01*
X114660000Y-80346666D02*
X116205000Y-81891666D01*
D28*
X114660000Y-72785000D02*
X114660000Y-79118333D01*
X114660000Y-66451666D02*
X114660000Y-72785000D01*
X114660000Y-60118333D02*
X114660000Y-66451666D01*
X127100000Y-58091666D02*
X115400000Y-58091666D01*
X115400000Y-58091666D02*
X114660000Y-58831666D01*
X114660000Y-58831666D02*
X114660000Y-60118333D01*
D27*
%TO.N,/t_cathodes10*%
X111950000Y-70941666D02*
X113000000Y-69891666D01*
X113000000Y-69891666D02*
X113000000Y-66066666D01*
X113000000Y-66066666D02*
X111075000Y-64141666D01*
%TO.N,/t_cathodes9*%
X110800000Y-69791666D02*
X111075000Y-69516666D01*
X111075000Y-69516666D02*
X111075000Y-68141666D01*
%TO.N,/t_cathodes11*%
X111075000Y-60141666D02*
X111075000Y-58466666D01*
X111075000Y-58466666D02*
X111000000Y-58391666D01*
%TO.N,/cathodes9*%
X106947500Y-66344166D02*
X107200000Y-66091666D01*
X104837500Y-66344166D02*
X106947500Y-66344166D01*
%TO.N,/cathodes8*%
X104837500Y-70344166D02*
X106047500Y-70344166D01*
X106047500Y-70344166D02*
X106200000Y-70191666D01*
%TO.N,/cathodes7*%
X104837500Y-74344166D02*
X106047500Y-74344166D01*
X106047500Y-74344166D02*
X106200000Y-74191666D01*
%TO.N,/cathodes6*%
X104837500Y-78344166D02*
X105747500Y-78344166D01*
X105747500Y-78344166D02*
X106000000Y-78091666D01*
%TO.N,/cathodes10*%
X104837500Y-62344166D02*
X111747500Y-62344166D01*
X111747500Y-62344166D02*
X112800000Y-61291666D01*
X112800000Y-61291666D02*
X112800000Y-57691666D01*
%TO.N,/t_cathodes5*%
X101675000Y-59116666D02*
X101900000Y-58891666D01*
X101675000Y-60141666D02*
X101675000Y-59116666D01*
X101900000Y-58891666D02*
X102000000Y-58791666D01*
%TO.N,/t_cathodes4*%
X101675000Y-62516666D02*
X101700000Y-62491666D01*
X101675000Y-64141666D02*
X101675000Y-62516666D01*
%TO.N,/t_cathodes3*%
X101675000Y-68141666D02*
X101675000Y-66566666D01*
X101675000Y-66566666D02*
X101300000Y-66191666D01*
%TO.N,/t_cathodes2*%
X101675000Y-72141666D02*
X101675000Y-70666666D01*
X101200000Y-70191666D02*
X98800000Y-70191666D01*
X101600000Y-70591666D02*
X101200000Y-70191666D01*
X101675000Y-70666666D02*
X101600000Y-70591666D01*
%TO.N,/t_cathodes1*%
X100900000Y-74091666D02*
X98700000Y-74091666D01*
X101600000Y-74791666D02*
X100900000Y-74091666D01*
X101675000Y-76141666D02*
X101675000Y-74866666D01*
X101675000Y-74866666D02*
X101600000Y-74791666D01*
%TO.N,/cathodes4*%
X98747500Y-62344166D02*
X99000000Y-62091666D01*
X95075000Y-62344166D02*
X98747500Y-62344166D01*
%TO.N,/cathodes3*%
X95075000Y-66344166D02*
X98047500Y-66344166D01*
X98047500Y-66344166D02*
X98100000Y-66291666D01*
%TO.N,/t_cathodes7*%
X106500000Y-86066666D02*
X106500000Y-83591666D01*
X112300000Y-77366666D02*
X111075000Y-76141666D01*
X106500000Y-83591666D02*
X107300000Y-82791666D01*
X107300000Y-82791666D02*
X110600000Y-82791666D01*
X110600000Y-82791666D02*
X112300000Y-81091666D01*
X112300000Y-81091666D02*
X112300000Y-77366666D01*
%TO.N,/t_cathodes8*%
X111075000Y-72141666D02*
X113101000Y-74167666D01*
X113101000Y-74167666D02*
X113101000Y-81690666D01*
X113101000Y-81690666D02*
X111000000Y-83791666D01*
X111000000Y-83791666D02*
X110000000Y-83791666D01*
X110000000Y-83791666D02*
X109000000Y-84791666D01*
X109000000Y-84791666D02*
X109000000Y-86066666D01*
%TO.N,/t_cathodes6*%
X104000000Y-86066666D02*
X104000000Y-84491666D01*
X104000000Y-84491666D02*
X106500000Y-81991666D01*
X106500000Y-81991666D02*
X110100000Y-81991666D01*
X110100000Y-81991666D02*
X111075000Y-81016666D01*
X111075000Y-81016666D02*
X111075000Y-80141666D01*
%TO.N,Net-(Q15-B)*%
X106775000Y-79544166D02*
X104842500Y-79544166D01*
X104842500Y-79544166D02*
X104837500Y-79539166D01*
X109200000Y-79191666D02*
X107127500Y-79191666D01*
X107127500Y-79191666D02*
X106775000Y-79544166D01*
%TO.N,Net-(Q20-B)*%
X106775000Y-59544166D02*
X104842500Y-59544166D01*
X104842500Y-59544166D02*
X104837500Y-59539166D01*
X109200000Y-59191666D02*
X107127500Y-59191666D01*
X107127500Y-59191666D02*
X106775000Y-59544166D01*
%TO.N,Net-(Q19-B)*%
X106775000Y-63544166D02*
X104842500Y-63544166D01*
X104842500Y-63544166D02*
X104837500Y-63539166D01*
X109200000Y-63191666D02*
X107127500Y-63191666D01*
X107127500Y-63191666D02*
X106775000Y-63544166D01*
%TO.N,Net-(Q18-B)*%
X106775000Y-67544166D02*
X104842500Y-67544166D01*
X104842500Y-67544166D02*
X104837500Y-67539166D01*
X109200000Y-67191666D02*
X107127500Y-67191666D01*
X107127500Y-67191666D02*
X106775000Y-67544166D01*
%TO.N,Net-(Q17-B)*%
X106775000Y-71544166D02*
X104842500Y-71544166D01*
X104842500Y-71544166D02*
X104837500Y-71539166D01*
X109200000Y-71191666D02*
X107127500Y-71191666D01*
X107127500Y-71191666D02*
X106775000Y-71544166D01*
%TO.N,Net-(Q16-B)*%
X106775000Y-75544166D02*
X104842500Y-75544166D01*
X104842500Y-75544166D02*
X104837500Y-75539166D01*
X109200000Y-75191666D02*
X107127500Y-75191666D01*
X107127500Y-75191666D02*
X106775000Y-75544166D01*
%TO.N,Net-(Q9-B)*%
X99800000Y-79191666D02*
X97527500Y-79191666D01*
X97527500Y-79191666D02*
X97175000Y-79544166D01*
X95075000Y-79539166D02*
X97170000Y-79539166D01*
X97170000Y-79539166D02*
X97175000Y-79544166D01*
%TO.N,Net-(Q10-B)*%
X97175000Y-75544166D02*
X95080000Y-75544166D01*
X95080000Y-75544166D02*
X95075000Y-75539166D01*
X99800000Y-75191666D02*
X97527500Y-75191666D01*
X97527500Y-75191666D02*
X97175000Y-75544166D01*
%TO.N,Net-(Q11-B)*%
X97175000Y-71544166D02*
X95080000Y-71544166D01*
X95080000Y-71544166D02*
X95075000Y-71539166D01*
X99800000Y-71191666D02*
X97527500Y-71191666D01*
X97527500Y-71191666D02*
X97175000Y-71544166D01*
%TO.N,Net-(Q14-B)*%
X97175000Y-59544166D02*
X95080000Y-59544166D01*
X95080000Y-59544166D02*
X95075000Y-59539166D01*
X99800000Y-59191666D02*
X97527500Y-59191666D01*
X97527500Y-59191666D02*
X97175000Y-59544166D01*
%TO.N,Net-(Q13-B)*%
X99800000Y-63191666D02*
X97527500Y-63191666D01*
X97527500Y-63191666D02*
X97175000Y-63544166D01*
X95075000Y-63539166D02*
X97170000Y-63539166D01*
X97170000Y-63539166D02*
X97175000Y-63544166D01*
%TO.N,Net-(Q12-B)*%
X95075000Y-67539166D02*
X97170000Y-67539166D01*
X97170000Y-67539166D02*
X97175000Y-67544166D01*
X99800000Y-67191666D02*
X97527500Y-67191666D01*
X97527500Y-67191666D02*
X97175000Y-67544166D01*
%TO.N,/cathodes2*%
X95075000Y-70344166D02*
X97247500Y-70344166D01*
X97247500Y-70344166D02*
X97400000Y-70191666D01*
%TO.N,/cathodes1*%
X95075000Y-74344166D02*
X96247500Y-74344166D01*
X96247500Y-74344166D02*
X96300000Y-74291666D01*
%TO.N,/cathodes0*%
X96147500Y-78344166D02*
X96300000Y-78191666D01*
X95075000Y-78344166D02*
X96147500Y-78344166D01*
%TO.N,/anodes2*%
X84000000Y-64891666D02*
X80047500Y-64891666D01*
%TO.N,/t_anodes3*%
X91500000Y-61958333D02*
X91500000Y-60391666D01*
%TO.N,/t_anodes2*%
X93266666Y-68625000D02*
X93300000Y-68591666D01*
X91500000Y-68625000D02*
X93266666Y-68625000D01*
%TO.N,+48V*%
X88816666Y-79875000D02*
X89600000Y-79091666D01*
X88197500Y-79875000D02*
X88816666Y-79875000D01*
%TO.N,/t_anodes1*%
X91500000Y-75291666D02*
X91500000Y-73791666D01*
%TO.N,+48V*%
X89683333Y-61908333D02*
X89700000Y-61891666D01*
X88197500Y-61908333D02*
X89683333Y-61908333D01*
%TO.N,/anodes0*%
X80047500Y-78224999D02*
X81666667Y-78224999D01*
X81666667Y-78224999D02*
X81900000Y-77991666D01*
%TO.N,/anodes1*%
X81433334Y-71558332D02*
X81500000Y-71491666D01*
X80047500Y-71558332D02*
X81433334Y-71558332D01*
%TO.N,/anodes3*%
X84966667Y-58224999D02*
X85600000Y-57591666D01*
X80047500Y-58224999D02*
X84966667Y-58224999D01*
%TO.N,Net-(Q2-C)*%
X87247500Y-71333333D02*
X90641667Y-71333333D01*
X90641667Y-71333333D02*
X91500000Y-72191666D01*
%TO.N,Net-(Q1-C)*%
X87247500Y-78000000D02*
X90641667Y-78000000D01*
X90641667Y-78000000D02*
X91500000Y-78858333D01*
%TO.N,Net-(Q1-B)*%
X86197500Y-81908333D02*
X86197500Y-79975000D01*
X86197500Y-79975000D02*
X86297500Y-79875000D01*
X86197500Y-81908333D02*
X83516666Y-81908333D01*
X83516666Y-81908333D02*
X83400000Y-82024999D01*
%TO.N,Net-(Q5-B)*%
X78960000Y-80074999D02*
X77750000Y-80074999D01*
X77750000Y-80074999D02*
X77397500Y-80427499D01*
X78852500Y-78224999D02*
X78852500Y-79967499D01*
X78852500Y-79967499D02*
X78960000Y-80074999D01*
%TO.N,Net-(Q5-C)*%
X83400000Y-80024999D02*
X81835000Y-80024999D01*
X81835000Y-80024999D02*
X80835000Y-81024999D01*
%TO.N,Net-(Q6-C)*%
X83400000Y-73358332D02*
X81835000Y-73358332D01*
X81835000Y-73358332D02*
X80835000Y-74358332D01*
%TO.N,Net-(Q6-B)*%
X78852500Y-71558332D02*
X78852500Y-73300832D01*
X78852500Y-73300832D02*
X78960000Y-73408332D01*
X78960000Y-73408332D02*
X77750000Y-73408332D01*
X77750000Y-73408332D02*
X77397500Y-73760832D01*
%TO.N,Net-(Q7-B)*%
X78960000Y-66741666D02*
X77750000Y-66741666D01*
X77750000Y-66741666D02*
X77397500Y-67094166D01*
X78852500Y-64891666D02*
X78852500Y-66634166D01*
X78852500Y-66634166D02*
X78960000Y-66741666D01*
%TO.N,Net-(Q3-B)*%
X83400000Y-68691666D02*
X86080834Y-68691666D01*
X86080834Y-68691666D02*
X86197500Y-68575000D01*
%TO.N,Net-(Q7-C)*%
X83400000Y-66691666D02*
X81835000Y-66691666D01*
X81835000Y-66691666D02*
X80835000Y-67691666D01*
%TO.N,Net-(Q3-C)*%
X87247500Y-64666667D02*
X90641667Y-64666667D01*
X90641667Y-64666667D02*
X91500000Y-65525000D01*
%TO.N,+48V*%
X88197500Y-66541667D02*
X88197500Y-68575000D01*
%TO.N,Net-(Q3-B)*%
X86197500Y-68575000D02*
X86197500Y-66641667D01*
X86197500Y-66641667D02*
X86297500Y-66541667D01*
%TO.N,Net-(Q8-B)*%
X78852500Y-58224999D02*
X78852500Y-59967499D01*
X78852500Y-59967499D02*
X78960000Y-60074999D01*
X78960000Y-60074999D02*
X77750000Y-60074999D01*
X77750000Y-60074999D02*
X77397500Y-60427499D01*
%TO.N,Net-(Q8-C)*%
X83400000Y-60024999D02*
X81835000Y-60024999D01*
X81835000Y-60024999D02*
X80835000Y-61024999D01*
%TO.N,Net-(Q4-B)*%
X86197500Y-61908333D02*
X83516666Y-61908333D01*
X83516666Y-61908333D02*
X83400000Y-62024999D01*
X86297500Y-59875000D02*
X86297500Y-61808333D01*
X86297500Y-61808333D02*
X86197500Y-61908333D01*
%TO.N,+48V*%
X88197500Y-59875000D02*
X88197500Y-61908333D01*
%TO.N,Net-(Q4-C)*%
X87247500Y-58000000D02*
X90641667Y-58000000D01*
X90641667Y-58000000D02*
X91500000Y-58858333D01*
%TO.N,+48V*%
X88197500Y-79875000D02*
X88197500Y-81908333D01*
%TO.N,/t_anodes0*%
X91500000Y-81958333D02*
X91500000Y-83091666D01*
X91500000Y-83091666D02*
X90800000Y-83791666D01*
X90800000Y-83791666D02*
X80200000Y-83791666D01*
X80200000Y-83791666D02*
X79000000Y-84991666D01*
X79000000Y-84991666D02*
X79000000Y-86066666D01*
%TO.N,+48V*%
X88280833Y-81991666D02*
X88197500Y-81908333D01*
X88247500Y-75191666D02*
X88197500Y-75241666D01*
X89700000Y-75191666D02*
X88247500Y-75191666D01*
X89700000Y-68591666D02*
X88214166Y-68591666D01*
X88214166Y-68591666D02*
X88197500Y-68575000D01*
%TO.N,/cathodes11*%
X104837500Y-58344166D02*
X104837500Y-57454166D01*
X104837500Y-57454166D02*
X106600000Y-55691666D01*
X106600000Y-55691666D02*
X115900000Y-55691666D01*
X115900000Y-55691666D02*
X116500000Y-55091666D01*
X116500000Y-55091666D02*
X116500000Y-52816666D01*
%TO.N,/cathodes5*%
X95075000Y-58344166D02*
X95075000Y-57616666D01*
X95075000Y-57616666D02*
X97100000Y-55591666D01*
X97100000Y-55591666D02*
X100600000Y-55591666D01*
X100600000Y-55591666D02*
X101500000Y-54691666D01*
X101500000Y-54691666D02*
X101500000Y-52816666D01*
%TO.N,GND*%
X99800000Y-65091666D02*
X109200000Y-65091666D01*
X99800000Y-69091666D02*
X109200000Y-69091666D01*
X99800000Y-73091666D02*
X109200000Y-73091666D01*
X99800000Y-77091666D02*
X109200000Y-77091666D01*
X99800000Y-81091666D02*
X109200000Y-81091666D01*
X109200000Y-81091666D02*
X107127500Y-81091666D01*
X107127500Y-81091666D02*
X106775000Y-80739166D01*
X109200000Y-77091666D02*
X107127500Y-77091666D01*
X107127500Y-77091666D02*
X106775000Y-76739166D01*
X109200000Y-73091666D02*
X107127500Y-73091666D01*
X107127500Y-73091666D02*
X106775000Y-72739166D01*
X109200000Y-69091666D02*
X107127500Y-69091666D01*
X107127500Y-69091666D02*
X106775000Y-68739166D01*
X109200000Y-65091666D02*
X107127500Y-65091666D01*
X107127500Y-65091666D02*
X106775000Y-64739166D01*
X106775000Y-60739166D02*
X106422500Y-61091666D01*
X106422500Y-61091666D02*
X99800000Y-61091666D01*
X109200000Y-61091666D02*
X107127500Y-61091666D01*
X107127500Y-61091666D02*
X106775000Y-60739166D01*
X94552500Y-60739166D02*
X93700000Y-61591666D01*
X97175000Y-60739166D02*
X94552500Y-60739166D01*
X93700000Y-61591666D02*
X93700000Y-62291666D01*
X93700000Y-62291666D02*
X92700000Y-63291666D01*
D28*
X76100000Y-63391666D02*
X76100000Y-62919999D01*
D27*
X97175000Y-64739166D02*
X94147500Y-64739166D01*
X94147500Y-64739166D02*
X92700000Y-63291666D01*
X92700000Y-63291666D02*
X76200000Y-63291666D01*
X76200000Y-63291666D02*
X76100000Y-63391666D01*
X97175000Y-72739166D02*
X94447500Y-72739166D01*
X94447500Y-72739166D02*
X93600000Y-71891666D01*
X93600000Y-71891666D02*
X93600000Y-69991666D01*
D28*
X76100000Y-70791666D02*
X76100000Y-69991666D01*
D27*
X97175000Y-68739166D02*
X94852500Y-68739166D01*
X94852500Y-68739166D02*
X93600000Y-69991666D01*
X93600000Y-69991666D02*
X76100000Y-69991666D01*
X93400000Y-76691666D02*
X76100000Y-76691666D01*
X97175000Y-80739166D02*
X94047500Y-80739166D01*
X93400000Y-80091666D02*
X93400000Y-76691666D01*
X94047500Y-80739166D02*
X93400000Y-80091666D01*
X96947500Y-76739166D02*
X96900000Y-76691666D01*
X96900000Y-76691666D02*
X93400000Y-76691666D01*
X97175000Y-76739166D02*
X96947500Y-76739166D01*
D28*
X76100000Y-81091666D02*
X76100000Y-76691666D01*
D27*
X99800000Y-81091666D02*
X97527500Y-81091666D01*
X97527500Y-81091666D02*
X97175000Y-80739166D01*
X99800000Y-77091666D02*
X97527500Y-77091666D01*
X97527500Y-77091666D02*
X97175000Y-76739166D01*
X99800000Y-73091666D02*
X97527500Y-73091666D01*
X97527500Y-73091666D02*
X97175000Y-72739166D01*
X99800000Y-69091666D02*
X97527500Y-69091666D01*
X97527500Y-69091666D02*
X97175000Y-68739166D01*
X99800000Y-61091666D02*
X97527500Y-61091666D01*
X97527500Y-61091666D02*
X97175000Y-60739166D01*
X99800000Y-65091666D02*
X97527500Y-65091666D01*
X97527500Y-65091666D02*
X97175000Y-64739166D01*
D28*
X76100000Y-68291666D02*
X76100000Y-63391666D01*
X76100000Y-68791666D02*
X76100000Y-68291666D01*
X76100000Y-76691666D02*
X76100000Y-74891666D01*
X77397500Y-74955832D02*
X76164166Y-74955832D01*
X76164166Y-74955832D02*
X76100000Y-74891666D01*
X77397500Y-68289166D02*
X76102500Y-68289166D01*
X76102500Y-68289166D02*
X76100000Y-68291666D01*
X76630833Y-81622499D02*
X76100000Y-81091666D01*
X77397500Y-81622499D02*
X76630833Y-81622499D01*
X76100000Y-62919999D02*
X77397500Y-61622499D01*
X78960000Y-81974999D02*
X77750000Y-81974999D01*
X77750000Y-81974999D02*
X77397500Y-81622499D01*
X78960000Y-75308332D02*
X77750000Y-75308332D01*
X77750000Y-75308332D02*
X77397500Y-74955832D01*
X78960000Y-68641666D02*
X77750000Y-68641666D01*
X77750000Y-68641666D02*
X77397500Y-68289166D01*
X78960000Y-61974999D02*
X77750000Y-61974999D01*
X77750000Y-61974999D02*
X77397500Y-61622499D01*
D27*
%TO.N,/anodes0*%
X78875000Y-53066666D02*
X79125000Y-52816666D01*
%TO.N,/t_cathodes0*%
X101675000Y-78666666D02*
X101600000Y-78591666D01*
X101600000Y-78591666D02*
X101100000Y-78091666D01*
X101675000Y-80141666D02*
X101675000Y-78666666D01*
X101100000Y-78091666D02*
X97800000Y-78091666D01*
%TD*%
M02*
