%TF.GenerationSoftware,KiCad,Pcbnew,9.0.6*%
%TF.CreationDate,2026-03-09T13:08:45+03:00*%
%TF.ProjectId,tube_switcher,74756265-5f73-4776-9974-636865722e6b,rev?*%
%TF.SameCoordinates,Original*%
%TF.FileFunction,Soldermask,Top*%
%TF.FilePolarity,Negative*%
%FSLAX46Y46*%
G04 Gerber Fmt 4.6, Leading zero omitted, Abs format (unit mm)*
G04 Created by KiCad (PCBNEW 9.0.6) date 2026-03-09 13:08:45*
%MOMM*%
%LPD*%
G01*
G04 APERTURE LIST*
G04 Aperture macros list*
%AMRoundRect*
0 Rectangle with rounded corners*
0 $1 Rounding radius*
0 $2 $3 $4 $5 $6 $7 $8 $9 X,Y pos of 4 corners*
0 Add a 4 corners polygon primitive as box body*
4,1,4,$2,$3,$4,$5,$6,$7,$8,$9,$2,$3,0*
0 Add four circle primitives for the rounded corners*
1,1,$1+$1,$2,$3*
1,1,$1+$1,$4,$5*
1,1,$1+$1,$6,$7*
1,1,$1+$1,$8,$9*
0 Add four rect primitives between the rounded corners*
20,1,$1+$1,$2,$3,$4,$5,0*
20,1,$1+$1,$4,$5,$6,$7,0*
20,1,$1+$1,$6,$7,$8,$9,0*
20,1,$1+$1,$8,$9,$2,$3,0*%
G04 Aperture macros list end*
%ADD10RoundRect,0.160000X0.197500X0.160000X-0.197500X0.160000X-0.197500X-0.160000X0.197500X-0.160000X0*%
%ADD11C,2.200000*%
%ADD12RoundRect,0.150000X0.150000X-0.587500X0.150000X0.587500X-0.150000X0.587500X-0.150000X-0.587500X0*%
%ADD13RoundRect,0.160000X-0.160000X0.197500X-0.160000X-0.197500X0.160000X-0.197500X0.160000X0.197500X0*%
%ADD14RoundRect,0.150000X-0.587500X-0.150000X0.587500X-0.150000X0.587500X0.150000X-0.587500X0.150000X0*%
%ADD15RoundRect,0.250000X0.450000X-0.350000X0.450000X0.350000X-0.450000X0.350000X-0.450000X-0.350000X0*%
%ADD16RoundRect,0.250000X0.350000X0.450000X-0.350000X0.450000X-0.350000X-0.450000X0.350000X-0.450000X0*%
%ADD17RoundRect,0.250000X-0.625000X0.400000X-0.625000X-0.400000X0.625000X-0.400000X0.625000X0.400000X0*%
%ADD18O,2.000000X1.700000*%
%ADD19RoundRect,0.250000X-0.750000X0.600000X-0.750000X-0.600000X0.750000X-0.600000X0.750000X0.600000X0*%
%ADD20RoundRect,0.250000X-0.650000X1.000000X-0.650000X-1.000000X0.650000X-1.000000X0.650000X1.000000X0*%
%ADD21O,1.700000X1.950000*%
%ADD22RoundRect,0.250000X-0.600000X-0.725000X0.600000X-0.725000X0.600000X0.725000X-0.600000X0.725000X0*%
%ADD23RoundRect,0.250000X-0.725000X0.600000X-0.725000X-0.600000X0.725000X-0.600000X0.725000X0.600000X0*%
%ADD24O,1.950000X1.700000*%
%ADD25R,1.500000X1.500000*%
%ADD26C,1.500000*%
G04 APERTURE END LIST*
D10*
%TO.C,R50*%
X116205000Y-62891666D03*
X117400000Y-62891666D03*
%TD*%
D11*
%TO.C,REF\u002A\u002A*%
X72500000Y-52500000D03*
%TD*%
%TO.C,REF\u002A\u002A*%
X72500000Y-87500000D03*
%TD*%
%TO.C,REF\u002A\u002A*%
X127500000Y-87500000D03*
%TD*%
%TO.C,REF\u002A\u002A*%
X127500000Y-52500000D03*
%TD*%
D12*
%TO.C,Q1*%
X87247500Y-78000000D03*
X88197500Y-79875000D03*
X86297500Y-79875000D03*
%TD*%
%TO.C,Q2*%
X87247500Y-71333333D03*
X88197500Y-73208333D03*
X86297500Y-73208333D03*
%TD*%
%TO.C,Q4*%
X86297500Y-59875000D03*
X88197500Y-59875000D03*
X87247500Y-58000000D03*
%TD*%
%TO.C,Q3*%
X87247500Y-64666667D03*
X88197500Y-66541667D03*
X86297500Y-66541667D03*
%TD*%
D13*
%TO.C,R28*%
X104837500Y-74344166D03*
X104837500Y-75539166D03*
%TD*%
%TO.C,R29*%
X104837500Y-70344166D03*
X104837500Y-71539166D03*
%TD*%
%TO.C,R30*%
X104837500Y-66344166D03*
X104837500Y-67539166D03*
%TD*%
%TO.C,R31*%
X104837500Y-63539166D03*
X104837500Y-62344166D03*
%TD*%
%TO.C,R27*%
X104837500Y-78344166D03*
X104837500Y-79539166D03*
%TD*%
%TO.C,R46*%
X122000000Y-61189166D03*
X122000000Y-59994166D03*
%TD*%
%TO.C,R47*%
X122000000Y-64589166D03*
X122000000Y-63394166D03*
%TD*%
%TO.C,R48*%
X122000000Y-67989166D03*
X122000000Y-66794166D03*
%TD*%
%TO.C,R49*%
X122000000Y-71389166D03*
X122000000Y-70194166D03*
%TD*%
D14*
%TO.C,Q8*%
X78960000Y-60074999D03*
X78960000Y-61974999D03*
X80835000Y-61024999D03*
%TD*%
D13*
%TO.C,R17*%
X77397500Y-80427499D03*
X77397500Y-81622499D03*
%TD*%
D14*
%TO.C,Q7*%
X78960000Y-66741666D03*
X78960000Y-68641666D03*
X80835000Y-67691666D03*
%TD*%
D13*
%TO.C,R20*%
X77397500Y-61622499D03*
X77397500Y-60427499D03*
%TD*%
D15*
%TO.C,R12*%
X83400000Y-62024999D03*
X83400000Y-60024999D03*
%TD*%
%TO.C,R11*%
X83400000Y-68691666D03*
X83400000Y-66691666D03*
%TD*%
D16*
%TO.C,R4*%
X88197500Y-61908333D03*
X86197500Y-61908333D03*
%TD*%
D14*
%TO.C,Q6*%
X78960000Y-73408332D03*
X78960000Y-75308332D03*
X80835000Y-74358332D03*
%TD*%
D13*
%TO.C,R19*%
X77397500Y-68289166D03*
X77397500Y-67094166D03*
%TD*%
D16*
%TO.C,R3*%
X88197500Y-68575000D03*
X86197500Y-68575000D03*
%TD*%
D15*
%TO.C,R10*%
X83400000Y-75358332D03*
X83400000Y-73358332D03*
%TD*%
D10*
%TO.C,R8*%
X80047500Y-58224999D03*
X78852500Y-58224999D03*
%TD*%
%TO.C,R5*%
X78852500Y-78224999D03*
X80047500Y-78224999D03*
%TD*%
D16*
%TO.C,R2*%
X88197500Y-75241666D03*
X86197500Y-75241666D03*
%TD*%
D17*
%TO.C,R14*%
X91500000Y-72191666D03*
X91500000Y-75291666D03*
%TD*%
D13*
%TO.C,R18*%
X77397500Y-74955832D03*
X77397500Y-73760832D03*
%TD*%
D10*
%TO.C,R7*%
X80047500Y-64891666D03*
X78852500Y-64891666D03*
%TD*%
D17*
%TO.C,R16*%
X91500000Y-58858333D03*
X91500000Y-61958333D03*
%TD*%
%TO.C,R15*%
X91500000Y-65525000D03*
X91500000Y-68625000D03*
%TD*%
D10*
%TO.C,R6*%
X80047500Y-71558332D03*
X78852500Y-71558332D03*
%TD*%
D18*
%TO.C,J5*%
X74000000Y-69991666D03*
D19*
X74000000Y-67491666D03*
%TD*%
D13*
%TO.C,R26*%
X95075000Y-58344166D03*
X95075000Y-59539166D03*
%TD*%
%TO.C,R32*%
X104837500Y-58344166D03*
X104837500Y-59539166D03*
%TD*%
%TO.C,R21*%
X95075000Y-78344166D03*
X95075000Y-79539166D03*
%TD*%
D14*
%TO.C,Q9*%
X99800000Y-79191666D03*
X99800000Y-81091666D03*
X101675000Y-80141666D03*
%TD*%
D13*
%TO.C,R25*%
X95075000Y-62344166D03*
X95075000Y-63539166D03*
%TD*%
%TO.C,R38*%
X97175000Y-60739166D03*
X97175000Y-59544166D03*
%TD*%
D14*
%TO.C,Q12*%
X99800000Y-67191666D03*
X99800000Y-69091666D03*
X101675000Y-68141666D03*
%TD*%
D13*
%TO.C,R35*%
X97175000Y-71544166D03*
X97175000Y-72739166D03*
%TD*%
%TO.C,R39*%
X106775000Y-79544166D03*
X106775000Y-80739166D03*
%TD*%
D14*
%TO.C,Q17*%
X111075000Y-72141666D03*
X109200000Y-73091666D03*
X109200000Y-71191666D03*
%TD*%
%TO.C,Q10*%
X99800000Y-75191666D03*
X99800000Y-77091666D03*
X101675000Y-76141666D03*
%TD*%
D13*
%TO.C,R34*%
X97175000Y-75544166D03*
X97175000Y-76739166D03*
%TD*%
D14*
%TO.C,Q15*%
X111075000Y-80141666D03*
X109200000Y-81091666D03*
X109200000Y-79191666D03*
%TD*%
%TO.C,Q19*%
X111075000Y-64141666D03*
X109200000Y-65091666D03*
X109200000Y-63191666D03*
%TD*%
%TO.C,Q20*%
X111075000Y-60141666D03*
X109200000Y-61091666D03*
X109200000Y-59191666D03*
%TD*%
%TO.C,Q18*%
X111075000Y-68141666D03*
X109200000Y-69091666D03*
X109200000Y-67191666D03*
%TD*%
D13*
%TO.C,R41*%
X106775000Y-71544166D03*
X106775000Y-72739166D03*
%TD*%
D14*
%TO.C,Q16*%
X111075000Y-76141666D03*
X109200000Y-77091666D03*
X109200000Y-75191666D03*
%TD*%
D13*
%TO.C,R42*%
X106775000Y-67544166D03*
X106775000Y-68739166D03*
%TD*%
D14*
%TO.C,Q11*%
X99800000Y-71191666D03*
X99800000Y-73091666D03*
X101675000Y-72141666D03*
%TD*%
D13*
%TO.C,R36*%
X97175000Y-67544166D03*
X97175000Y-68739166D03*
%TD*%
D14*
%TO.C,Q14*%
X99800000Y-59191666D03*
X99800000Y-61091666D03*
X101675000Y-60141666D03*
%TD*%
D13*
%TO.C,R23*%
X95075000Y-70344166D03*
X95075000Y-71539166D03*
%TD*%
%TO.C,R22*%
X95075000Y-74344166D03*
X95075000Y-75539166D03*
%TD*%
%TO.C,R33*%
X97175000Y-79544166D03*
X97175000Y-80739166D03*
%TD*%
%TO.C,R43*%
X106775000Y-64739166D03*
X106775000Y-63544166D03*
%TD*%
%TO.C,R24*%
X95075000Y-66344166D03*
X95075000Y-67539166D03*
%TD*%
D14*
%TO.C,Q13*%
X99800000Y-63191666D03*
X99800000Y-65091666D03*
X101675000Y-64141666D03*
%TD*%
D13*
%TO.C,R40*%
X106775000Y-75544166D03*
X106775000Y-76739166D03*
%TD*%
%TO.C,R37*%
X97175000Y-64739166D03*
X97175000Y-63544166D03*
%TD*%
%TO.C,R44*%
X106775000Y-60739166D03*
X106775000Y-59544166D03*
%TD*%
D15*
%TO.C,R9*%
X83400000Y-80024999D03*
X83400000Y-82024999D03*
%TD*%
D14*
%TO.C,Q5*%
X80835000Y-81024999D03*
X78960000Y-81974999D03*
X78960000Y-80074999D03*
%TD*%
D17*
%TO.C,R13*%
X91500000Y-78858333D03*
X91500000Y-81958333D03*
%TD*%
D16*
%TO.C,R1*%
X86197500Y-81908333D03*
X88197500Y-81908333D03*
%TD*%
D20*
%TO.C,D1*%
X121300000Y-83091666D03*
X121300000Y-87091666D03*
%TD*%
D17*
%TO.C,R45*%
X122000000Y-77141666D03*
X122000000Y-80241666D03*
%TD*%
D10*
%TO.C,R53*%
X117400000Y-81891666D03*
X116205000Y-81891666D03*
%TD*%
%TO.C,R52*%
X117400000Y-75558333D03*
X116205000Y-75558333D03*
%TD*%
D21*
%TO.C,J1*%
X116500000Y-52900000D03*
X114000000Y-52900000D03*
X111500000Y-52900000D03*
X109000000Y-52900000D03*
X106500000Y-52900000D03*
X104000000Y-52900000D03*
X101500000Y-52900000D03*
X99000000Y-52900000D03*
X96500000Y-52900000D03*
X94000000Y-52900000D03*
X91500000Y-52900000D03*
X89000000Y-52900000D03*
X86500000Y-52900000D03*
X84000000Y-52900000D03*
X81500000Y-52900000D03*
D22*
X79000000Y-52900000D03*
%TD*%
D23*
%TO.C,J4*%
X127100000Y-74091666D03*
D24*
X127100000Y-76591666D03*
X127100000Y-79091666D03*
X127100000Y-81591666D03*
%TD*%
D10*
%TO.C,R51*%
X117400000Y-69224999D03*
X116205000Y-69224999D03*
%TD*%
D22*
%TO.C,J2*%
X79000000Y-86000000D03*
D21*
X81500000Y-86000000D03*
X84000000Y-86000000D03*
X86500000Y-86000000D03*
X89000000Y-86000000D03*
X91500000Y-86000000D03*
X94000000Y-86000000D03*
X96500000Y-86000000D03*
X99000000Y-86000000D03*
X101500000Y-86000000D03*
X104000000Y-86000000D03*
X106500000Y-86000000D03*
X109000000Y-86000000D03*
X111500000Y-86000000D03*
X114000000Y-86000000D03*
X116500000Y-86000000D03*
%TD*%
D23*
%TO.C,J3*%
X127100000Y-58091666D03*
D24*
X127100000Y-60591666D03*
X127100000Y-63091666D03*
X127100000Y-65591666D03*
X127100000Y-68091666D03*
%TD*%
D25*
%TO.C,Q23*%
X119740000Y-72785000D03*
D26*
X117200000Y-72785000D03*
X114660000Y-72785000D03*
%TD*%
D25*
%TO.C,Q21*%
X119740000Y-60118333D03*
D26*
X117200000Y-60118333D03*
X114660000Y-60118333D03*
%TD*%
D25*
%TO.C,Q22*%
X119740000Y-66451666D03*
D26*
X117200000Y-66451666D03*
X114660000Y-66451666D03*
%TD*%
D25*
%TO.C,Q24*%
X119740000Y-79118333D03*
D26*
X117200000Y-79118333D03*
X114660000Y-79118333D03*
%TD*%
M02*
