%TF.GenerationSoftware,KiCad,Pcbnew,9.0.6*%
%TF.CreationDate,2026-03-09T13:08:43+03:00*%
%TF.ProjectId,tube_switcher,74756265-5f73-4776-9974-636865722e6b,rev?*%
%TF.SameCoordinates,Original*%
%TF.FileFunction,Copper,L2,Bot*%
%TF.FilePolarity,Positive*%
%FSLAX46Y46*%
G04 Gerber Fmt 4.6, Leading zero omitted, Abs format (unit mm)*
G04 Created by KiCad (PCBNEW 9.0.6) date 2026-03-09 13:08:43*
%MOMM*%
%LPD*%
G01*
G04 APERTURE LIST*
G04 Aperture macros list*
%AMRoundRect*
0 Rectangle with rounded corners*
0 $1 Rounding radius*
0 $2 $3 $4 $5 $6 $7 $8 $9 X,Y pos of 4 corners*
0 Add a 4 corners polygon primitive as box body*
4,1,4,$2,$3,$4,$5,$6,$7,$8,$9,$2,$3,0*
0 Add four circle primitives for the rounded corners*
1,1,$1+$1,$2,$3*
1,1,$1+$1,$4,$5*
1,1,$1+$1,$6,$7*
1,1,$1+$1,$8,$9*
0 Add four rect primitives between the rounded corners*
20,1,$1+$1,$2,$3,$4,$5,0*
20,1,$1+$1,$4,$5,$6,$7,0*
20,1,$1+$1,$6,$7,$8,$9,0*
20,1,$1+$1,$8,$9,$2,$3,0*%
G04 Aperture macros list end*
%TA.AperFunction,ComponentPad*%
%ADD10O,2.000000X1.700000*%
%TD*%
%TA.AperFunction,ComponentPad*%
%ADD11RoundRect,0.250000X-0.750000X0.600000X-0.750000X-0.600000X0.750000X-0.600000X0.750000X0.600000X0*%
%TD*%
%TA.AperFunction,ComponentPad*%
%ADD12O,1.700000X1.950000*%
%TD*%
%TA.AperFunction,ComponentPad*%
%ADD13RoundRect,0.250000X-0.600000X-0.725000X0.600000X-0.725000X0.600000X0.725000X-0.600000X0.725000X0*%
%TD*%
%TA.AperFunction,ComponentPad*%
%ADD14RoundRect,0.250000X-0.725000X0.600000X-0.725000X-0.600000X0.725000X-0.600000X0.725000X0.600000X0*%
%TD*%
%TA.AperFunction,ComponentPad*%
%ADD15O,1.950000X1.700000*%
%TD*%
%TA.AperFunction,ComponentPad*%
%ADD16R,1.500000X1.500000*%
%TD*%
%TA.AperFunction,ComponentPad*%
%ADD17C,1.500000*%
%TD*%
%TA.AperFunction,ViaPad*%
%ADD18C,1.000000*%
%TD*%
%TA.AperFunction,Conductor*%
%ADD19C,0.400000*%
%TD*%
G04 APERTURE END LIST*
D10*
%TO.P,J5,2,Pin_2*%
%TO.N,GND*%
X74000000Y-69991666D03*
D11*
%TO.P,J5,1,Pin_1*%
%TO.N,+48V*%
X74000000Y-67491666D03*
%TD*%
D12*
%TO.P,J1,16,Pin_16*%
%TO.N,/cathodes11*%
X116500000Y-52900000D03*
%TO.P,J1,15,Pin_15*%
%TO.N,/cathodes10*%
X114000000Y-52900000D03*
%TO.P,J1,14,Pin_14*%
%TO.N,/cathodes9*%
X111500000Y-52900000D03*
%TO.P,J1,13,Pin_13*%
%TO.N,/cathodes8*%
X109000000Y-52900000D03*
%TO.P,J1,12,Pin_12*%
%TO.N,/cathodes7*%
X106500000Y-52900000D03*
%TO.P,J1,11,Pin_11*%
%TO.N,/cathodes6*%
X104000000Y-52900000D03*
%TO.P,J1,10,Pin_10*%
%TO.N,/cathodes5*%
X101500000Y-52900000D03*
%TO.P,J1,9,Pin_9*%
%TO.N,/cathodes4*%
X99000000Y-52900000D03*
%TO.P,J1,8,Pin_8*%
%TO.N,/cathodes3*%
X96500000Y-52900000D03*
%TO.P,J1,7,Pin_7*%
%TO.N,/cathodes2*%
X94000000Y-52900000D03*
%TO.P,J1,6,Pin_6*%
%TO.N,/cathodes1*%
X91500000Y-52900000D03*
%TO.P,J1,5,Pin_5*%
%TO.N,/cathodes0*%
X89000000Y-52900000D03*
%TO.P,J1,4,Pin_4*%
%TO.N,/anodes3*%
X86500000Y-52900000D03*
%TO.P,J1,3,Pin_3*%
%TO.N,/anodes2*%
X84000000Y-52900000D03*
%TO.P,J1,2,Pin_2*%
%TO.N,/anodes1*%
X81500000Y-52900000D03*
D13*
%TO.P,J1,1,Pin_1*%
%TO.N,/anodes0*%
X79000000Y-52900000D03*
%TD*%
D14*
%TO.P,J4,1,Pin_1*%
%TO.N,Net-(J4-Pin_1)*%
X127100000Y-74091666D03*
D15*
%TO.P,J4,2,Pin_2*%
%TO.N,Net-(J4-Pin_2)*%
X127100000Y-76591666D03*
%TO.P,J4,3,Pin_3*%
%TO.N,Net-(D1-K)*%
X127100000Y-79091666D03*
%TO.P,J4,4,Pin_4*%
%TO.N,Net-(J4-Pin_4)*%
X127100000Y-81591666D03*
%TD*%
D13*
%TO.P,J2,1,Pin_1*%
%TO.N,/t_anodes0*%
X79000000Y-86000000D03*
D12*
%TO.P,J2,2,Pin_2*%
%TO.N,/t_anodes1*%
X81500000Y-86000000D03*
%TO.P,J2,3,Pin_3*%
%TO.N,/t_anodes2*%
X84000000Y-86000000D03*
%TO.P,J2,4,Pin_4*%
%TO.N,/t_anodes3*%
X86500000Y-86000000D03*
%TO.P,J2,5,Pin_5*%
%TO.N,/t_cathodes0*%
X89000000Y-86000000D03*
%TO.P,J2,6,Pin_6*%
%TO.N,/t_cathodes1*%
X91500000Y-86000000D03*
%TO.P,J2,7,Pin_7*%
%TO.N,/t_cathodes2*%
X94000000Y-86000000D03*
%TO.P,J2,8,Pin_8*%
%TO.N,/t_cathodes3*%
X96500000Y-86000000D03*
%TO.P,J2,9,Pin_9*%
%TO.N,/t_cathodes4*%
X99000000Y-86000000D03*
%TO.P,J2,10,Pin_10*%
%TO.N,/t_cathodes5*%
X101500000Y-86000000D03*
%TO.P,J2,11,Pin_11*%
%TO.N,/t_cathodes6*%
X104000000Y-86000000D03*
%TO.P,J2,12,Pin_12*%
%TO.N,/t_cathodes7*%
X106500000Y-86000000D03*
%TO.P,J2,13,Pin_13*%
%TO.N,/t_cathodes8*%
X109000000Y-86000000D03*
%TO.P,J2,14,Pin_14*%
%TO.N,/t_cathodes9*%
X111500000Y-86000000D03*
%TO.P,J2,15,Pin_15*%
%TO.N,/t_cathodes10*%
X114000000Y-86000000D03*
%TO.P,J2,16,Pin_16*%
%TO.N,/t_cathodes11*%
X116500000Y-86000000D03*
%TD*%
D14*
%TO.P,J3,1,Pin_1*%
%TO.N,GND1*%
X127100000Y-58091666D03*
D15*
%TO.P,J3,2,Pin_2*%
%TO.N,Net-(J3-Pin_2)*%
X127100000Y-60591666D03*
%TO.P,J3,3,Pin_3*%
%TO.N,Net-(J3-Pin_3)*%
X127100000Y-63091666D03*
%TO.P,J3,4,Pin_4*%
%TO.N,Net-(J3-Pin_4)*%
X127100000Y-65591666D03*
%TO.P,J3,5,Pin_5*%
%TO.N,Net-(J3-Pin_5)*%
X127100000Y-68091666D03*
%TD*%
D16*
%TO.P,Q23,1,B*%
%TO.N,Net-(Q23-B)*%
X119740000Y-72785000D03*
D17*
%TO.P,Q23,2,C*%
%TO.N,Net-(D1-K)*%
X117200000Y-72785000D03*
%TO.P,Q23,3,E*%
%TO.N,GND1*%
X114660000Y-72785000D03*
%TD*%
D16*
%TO.P,Q21,1,B*%
%TO.N,Net-(Q21-B)*%
X119740000Y-60118333D03*
D17*
%TO.P,Q21,2,C*%
%TO.N,Net-(J4-Pin_1)*%
X117200000Y-60118333D03*
%TO.P,Q21,3,E*%
%TO.N,GND1*%
X114660000Y-60118333D03*
%TD*%
D16*
%TO.P,Q22,1,B*%
%TO.N,Net-(Q22-B)*%
X119740000Y-66451666D03*
D17*
%TO.P,Q22,2,C*%
%TO.N,Net-(J4-Pin_2)*%
X117200000Y-66451666D03*
%TO.P,Q22,3,E*%
%TO.N,GND1*%
X114660000Y-66451666D03*
%TD*%
D16*
%TO.P,Q24,1,B*%
%TO.N,Net-(Q24-B)*%
X119740000Y-79118333D03*
D17*
%TO.P,Q24,2,C*%
%TO.N,Net-(D1-A)*%
X117200000Y-79118333D03*
%TO.P,Q24,3,E*%
%TO.N,GND1*%
X114660000Y-79118333D03*
%TD*%
D18*
%TO.N,Net-(D1-A)*%
X119000000Y-85591666D03*
%TO.N,Net-(J4-Pin_4)*%
X123900000Y-79191666D03*
%TO.N,/t_cathodes10*%
X111950000Y-70941666D03*
%TO.N,/t_cathodes11*%
X111000000Y-58391666D03*
%TO.N,/t_cathodes9*%
X110800000Y-69791666D03*
%TO.N,/cathodes9*%
X107200000Y-66091666D03*
%TO.N,/cathodes8*%
X106200000Y-70191666D03*
%TO.N,/cathodes7*%
X106200000Y-74191666D03*
%TO.N,/cathodes6*%
X106000000Y-78091666D03*
%TO.N,/cathodes10*%
X112800000Y-57691666D03*
%TO.N,/t_cathodes5*%
X101900000Y-58891666D03*
%TO.N,/t_cathodes4*%
X101700000Y-62491666D03*
%TO.N,/t_cathodes3*%
X101300000Y-66191666D03*
%TO.N,/t_cathodes2*%
X98800000Y-70191666D03*
%TO.N,/t_cathodes1*%
X98700000Y-74091666D03*
%TO.N,/cathodes4*%
X99000000Y-62091666D03*
%TO.N,/cathodes3*%
X98100000Y-66291666D03*
%TO.N,/cathodes2*%
X97400000Y-70191666D03*
%TO.N,/cathodes1*%
X96300000Y-74291666D03*
%TO.N,/cathodes0*%
X96300000Y-78191666D03*
%TO.N,/t_anodes3*%
X91500000Y-60391666D03*
%TO.N,/t_anodes2*%
X93300000Y-68591666D03*
%TO.N,+48V*%
X89600000Y-79091666D03*
%TO.N,/t_anodes1*%
X91500000Y-73791666D03*
%TO.N,+48V*%
X89700000Y-61891666D03*
%TO.N,/anodes0*%
X81900000Y-77991666D03*
%TO.N,/anodes1*%
X81500000Y-71491666D03*
%TO.N,/anodes2*%
X84000000Y-64891666D03*
%TO.N,/anodes3*%
X85600000Y-57591666D03*
%TO.N,+48V*%
X89700000Y-55691666D03*
X89700000Y-75191666D03*
X89700000Y-68591666D03*
%TO.N,/t_cathodes0*%
X97800000Y-78091666D03*
%TD*%
D19*
%TO.N,Net-(D1-A)*%
X119000000Y-83691666D02*
X119000000Y-85591666D01*
X118500000Y-81991666D02*
X119000000Y-82491666D01*
X119000000Y-82491666D02*
X119000000Y-83691666D01*
X117400000Y-80891666D02*
X118500000Y-81991666D01*
X117200000Y-79118333D02*
X117200000Y-80691666D01*
X117200000Y-80691666D02*
X117400000Y-80891666D01*
%TO.N,Net-(J4-Pin_4)*%
X126300000Y-81591666D02*
X123900000Y-79191666D01*
X127100000Y-81591666D02*
X126300000Y-81591666D01*
%TO.N,Net-(D1-K)*%
X117200000Y-72785000D02*
X117200000Y-74191666D01*
X117200000Y-74191666D02*
X119500000Y-76491666D01*
X119500000Y-76491666D02*
X123500000Y-76491666D01*
X123500000Y-76491666D02*
X126100000Y-79091666D01*
X126100000Y-79091666D02*
X127100000Y-79091666D01*
%TO.N,Net-(J4-Pin_2)*%
X117200000Y-66451666D02*
X117200000Y-68591666D01*
X117200000Y-68591666D02*
X118300000Y-69691666D01*
X118300000Y-69691666D02*
X122000000Y-69691666D01*
X122000000Y-69691666D02*
X122900000Y-70591666D01*
X125900000Y-76591666D02*
X127100000Y-76591666D01*
X122900000Y-70591666D02*
X122900000Y-73591666D01*
X122900000Y-73591666D02*
X125900000Y-76591666D01*
%TO.N,Net-(J4-Pin_1)*%
X127100000Y-74091666D02*
X124400000Y-71391666D01*
X124400000Y-71391666D02*
X124400000Y-63291666D01*
X117700000Y-62391666D02*
X117200000Y-61891666D01*
X124400000Y-63291666D02*
X123500000Y-62391666D01*
X123500000Y-62391666D02*
X117700000Y-62391666D01*
X117200000Y-61891666D02*
X117200000Y-60118333D01*
%TO.N,/t_cathodes11*%
X111000000Y-58391666D02*
X111000000Y-63091666D01*
X111000000Y-63091666D02*
X113000000Y-65091666D01*
X113000000Y-65091666D02*
X113000000Y-81791666D01*
X113000000Y-81791666D02*
X116500000Y-85291666D01*
X116500000Y-85291666D02*
X116500000Y-86066666D01*
%TO.N,/t_cathodes10*%
X111800000Y-71091666D02*
X111800000Y-82991666D01*
X111800000Y-82991666D02*
X114000000Y-85191666D01*
X114000000Y-85191666D02*
X114000000Y-86066666D01*
X111950000Y-70941666D02*
X111800000Y-71091666D01*
%TO.N,/t_cathodes9*%
X110800000Y-69891666D02*
X111000000Y-70091666D01*
X110800000Y-69791666D02*
X110800000Y-69891666D01*
X111000000Y-70091666D02*
X111000000Y-85566666D01*
X111000000Y-85566666D02*
X111500000Y-86066666D01*
%TO.N,/cathodes9*%
X107200000Y-58291666D02*
X111500000Y-53991666D01*
X107200000Y-66091666D02*
X107200000Y-58291666D01*
X111500000Y-53991666D02*
X111500000Y-52816666D01*
%TO.N,/cathodes8*%
X109000000Y-54691666D02*
X109000000Y-52816666D01*
X106200000Y-57491666D02*
X109000000Y-54691666D01*
X106200000Y-70191666D02*
X106200000Y-57491666D01*
%TO.N,/cathodes7*%
X104900000Y-72891666D02*
X104900000Y-57191666D01*
X106500000Y-55591666D02*
X106500000Y-52816666D01*
X106200000Y-74191666D02*
X104900000Y-72891666D01*
X104900000Y-57191666D02*
X106500000Y-55591666D01*
%TO.N,/cathodes6*%
X104100000Y-76191666D02*
X104100000Y-52916666D01*
X106000000Y-78091666D02*
X104100000Y-76191666D01*
X104100000Y-52916666D02*
X104000000Y-52816666D01*
%TO.N,/cathodes10*%
X112800000Y-57691666D02*
X114000000Y-56491666D01*
X114000000Y-56491666D02*
X114000000Y-52816666D01*
%TO.N,/t_cathodes5*%
X101900000Y-58891666D02*
X103300000Y-60291666D01*
X103300000Y-60291666D02*
X103300000Y-80391666D01*
X103300000Y-80391666D02*
X101500000Y-82191666D01*
X101500000Y-82191666D02*
X101500000Y-86066666D01*
%TO.N,/t_cathodes4*%
X102500000Y-63291666D02*
X102500000Y-79491666D01*
X101700000Y-62491666D02*
X102500000Y-63291666D01*
X102500000Y-79491666D02*
X99000000Y-82991666D01*
X99000000Y-82991666D02*
X99000000Y-86066666D01*
%TO.N,/t_cathodes3*%
X101300000Y-66191666D02*
X101300000Y-79191666D01*
X101300000Y-79191666D02*
X96500000Y-83991666D01*
X96500000Y-83991666D02*
X96500000Y-86066666D01*
%TO.N,/t_cathodes2*%
X99700000Y-71291666D02*
X99700000Y-79691666D01*
X99500000Y-71091666D02*
X99700000Y-71291666D01*
X98800000Y-70191666D02*
X99500000Y-70891666D01*
X99500000Y-70891666D02*
X99500000Y-71091666D01*
X98200000Y-81191666D02*
X96900000Y-81191666D01*
X99700000Y-79691666D02*
X98200000Y-81191666D01*
X96900000Y-81191666D02*
X94000000Y-84091666D01*
X94000000Y-84091666D02*
X94000000Y-86066666D01*
%TO.N,/t_cathodes1*%
X98700000Y-74091666D02*
X98700000Y-74391666D01*
X98700000Y-74391666D02*
X99000000Y-74691666D01*
X99000000Y-74691666D02*
X99000000Y-79191666D01*
X99000000Y-79191666D02*
X97900000Y-80291666D01*
X97900000Y-80291666D02*
X94500000Y-80291666D01*
X94500000Y-80291666D02*
X91500000Y-83291666D01*
X91500000Y-83291666D02*
X91500000Y-86066666D01*
%TO.N,/t_cathodes0*%
X97800000Y-78091666D02*
X97800000Y-78691666D01*
X97800000Y-78691666D02*
X97200000Y-79291666D01*
X97200000Y-79291666D02*
X94000000Y-79291666D01*
X94000000Y-79291666D02*
X89000000Y-84291666D01*
X89000000Y-84291666D02*
X89000000Y-86066666D01*
%TO.N,/t_anodes3*%
X91500000Y-60391666D02*
X92500000Y-60391666D01*
X92500000Y-60391666D02*
X94600000Y-62491666D01*
X94600000Y-62491666D02*
X94600000Y-77591666D01*
X94600000Y-77591666D02*
X89200000Y-82991666D01*
X89200000Y-82991666D02*
X87300000Y-82991666D01*
X87300000Y-82991666D02*
X86500000Y-83791666D01*
X86500000Y-83791666D02*
X86500000Y-86066666D01*
%TO.N,/t_anodes2*%
X93300000Y-68591666D02*
X93300000Y-77891666D01*
X93300000Y-77891666D02*
X88900000Y-82291666D01*
X88900000Y-82291666D02*
X84700000Y-82291666D01*
X84700000Y-82291666D02*
X84000000Y-82991666D01*
X84000000Y-82991666D02*
X84000000Y-86066666D01*
%TO.N,/t_anodes1*%
X91500000Y-73791666D02*
X91500000Y-78691666D01*
X91500000Y-78691666D02*
X89000000Y-81191666D01*
X89000000Y-81191666D02*
X82900000Y-81191666D01*
X82900000Y-81191666D02*
X81500000Y-82591666D01*
X81500000Y-82591666D02*
X81500000Y-86066666D01*
%TO.N,/cathodes4*%
X99000000Y-62091666D02*
X99000000Y-52816666D01*
%TO.N,/cathodes3*%
X98100000Y-58091666D02*
X96500000Y-56491666D01*
X98100000Y-66291666D02*
X98100000Y-58091666D01*
X96500000Y-56491666D02*
X96500000Y-52816666D01*
%TO.N,/cathodes2*%
X94000000Y-52816666D02*
X94000000Y-55891666D01*
X94000000Y-55891666D02*
X97200000Y-59091666D01*
X97200000Y-59091666D02*
X97200000Y-69991666D01*
X97200000Y-69991666D02*
X97400000Y-70191666D01*
%TO.N,/cathodes1*%
X96300000Y-59391666D02*
X91500000Y-54591666D01*
X96300000Y-74291666D02*
X96300000Y-59391666D01*
X91500000Y-54591666D02*
X91500000Y-52816666D01*
%TO.N,/cathodes0*%
X95400000Y-77291666D02*
X95400000Y-59891666D01*
X96300000Y-78191666D02*
X95400000Y-77291666D01*
X95400000Y-59891666D02*
X89000000Y-53491666D01*
X89000000Y-53491666D02*
X89000000Y-52816666D01*
%TO.N,/anodes2*%
X84000000Y-64891666D02*
X84000000Y-52816666D01*
%TO.N,+48V*%
X89600000Y-79091666D02*
X89700000Y-78991666D01*
X89700000Y-78991666D02*
X89700000Y-75191666D01*
X89700000Y-55691666D02*
X89700000Y-61891666D01*
%TO.N,/anodes0*%
X81900000Y-77991666D02*
X81900000Y-75791666D01*
X81900000Y-75791666D02*
X79000000Y-72891666D01*
X79000000Y-72891666D02*
X79000000Y-52816666D01*
%TO.N,/anodes1*%
X81500000Y-71491666D02*
X81500000Y-52816666D01*
%TO.N,/anodes3*%
X85600000Y-57591666D02*
X86500000Y-56691666D01*
X86500000Y-56691666D02*
X86500000Y-52816666D01*
%TO.N,+48V*%
X89700000Y-61891666D02*
X89700000Y-68591666D01*
X89700000Y-68591666D02*
X89700000Y-75191666D01*
%TD*%
M02*
