M48
; DRILL file {KiCad 9.0.6} date 2026-03-09T13:07:44+0300
; FORMAT={-:-/ absolute / metric / decimal}
; #@! TF.CreationDate,2026-03-09T13:07:44+03:00
; #@! TF.GenerationSoftware,Kicad,Pcbnew,9.0.6
; #@! TF.FileFunction,Plated,1,2,PTH
FMAT,2
METRIC
; #@! TA.AperFunction,Plated,PTH,ViaDrill
T1C0.500
; #@! TA.AperFunction,Plated,PTH,ComponentDrill
T2C0.800
; #@! TA.AperFunction,Plated,PTH,ComponentDrill
T3C0.950
; #@! TA.AperFunction,Plated,PTH,ComponentDrill
T4C1.000
%
G90
G05
T1
X81.5Y-71.492
X81.9Y-77.992
X84.0Y-64.892
X85.6Y-57.592
X89.6Y-79.092
X89.7Y-55.692
X89.7Y-61.892
X89.7Y-68.592
X89.7Y-75.192
X91.5Y-60.392
X91.5Y-73.792
X93.3Y-68.592
X96.3Y-74.292
X96.3Y-78.192
X97.4Y-70.192
X97.8Y-78.092
X98.1Y-66.292
X98.7Y-74.092
X98.8Y-70.192
X99.0Y-62.092
X101.3Y-66.192
X101.7Y-62.492
X101.9Y-58.892
X106.0Y-78.092
X106.2Y-70.192
X106.2Y-74.192
X107.2Y-66.092
X110.8Y-69.792
X111.0Y-58.392
X111.95Y-70.942
X112.8Y-57.692
X119.0Y-85.592
X123.9Y-79.192
T2
X114.66Y-60.118
X114.66Y-66.452
X114.66Y-72.785
X114.66Y-79.118
X117.2Y-60.118
X117.2Y-66.452
X117.2Y-72.785
X117.2Y-79.118
X119.74Y-60.118
X119.74Y-66.452
X119.74Y-72.785
X119.74Y-79.118
T3
X79.0Y-52.9
X79.0Y-86.0
X81.5Y-52.9
X81.5Y-86.0
X84.0Y-52.9
X84.0Y-86.0
X86.5Y-52.9
X86.5Y-86.0
X89.0Y-52.9
X89.0Y-86.0
X91.5Y-52.9
X91.5Y-86.0
X94.0Y-52.9
X94.0Y-86.0
X96.5Y-52.9
X96.5Y-86.0
X99.0Y-52.9
X99.0Y-86.0
X101.5Y-52.9
X101.5Y-86.0
X104.0Y-52.9
X104.0Y-86.0
X106.5Y-52.9
X106.5Y-86.0
X109.0Y-52.9
X109.0Y-86.0
X111.5Y-52.9
X111.5Y-86.0
X114.0Y-52.9
X114.0Y-86.0
X116.5Y-52.9
X116.5Y-86.0
X127.1Y-58.092
X127.1Y-60.592
X127.1Y-63.092
X127.1Y-65.592
X127.1Y-68.092
X127.1Y-74.092
X127.1Y-76.592
X127.1Y-79.092
X127.1Y-81.592
T4
X74.0Y-67.492
X74.0Y-69.992
M30
